<svg width="500" height="430" viewBox="0 0 500 430" fill="none" xmlns="http://www.w3.org/2000/svg">
<path d="M416.914 302.052C418.488 299.338 420.643 297.132 423.377 295.52C426.029 293.993 429.012 293.145 432.326 293.145C435.641 293.145 438.624 293.993 441.358 295.52C444.093 297.132 446.247 299.253 447.822 301.968C449.396 304.682 450.225 307.736 450.225 311.045C450.225 314.354 449.396 317.323 447.822 320.037C446.247 322.752 444.093 324.958 441.358 326.485C438.624 328.012 435.641 328.776 432.326 328.776C429.012 328.776 426.029 328.012 423.377 326.485C420.643 324.958 418.488 322.837 416.914 320.122C415.34 317.408 414.594 314.438 414.594 311.13C414.594 307.821 415.34 304.767 416.914 302.052ZM444.176 303.834C443.016 301.713 441.358 300.016 439.287 298.829C437.215 297.641 434.895 296.962 432.326 296.962C429.757 296.962 427.437 297.641 425.366 298.829C423.294 300.016 421.637 301.713 420.477 303.919C419.317 306.125 418.737 308.5 418.737 311.13C418.737 313.76 419.317 316.135 420.477 318.256C421.637 320.377 423.294 322.074 425.366 323.261C427.437 324.449 429.757 325.043 432.326 325.043C434.895 325.043 437.215 324.449 439.287 323.261C441.358 322.074 443.016 320.377 444.176 318.171C445.336 316.05 445.999 313.675 445.999 311.045C445.999 308.415 445.336 306.04 444.176 303.834ZM433.072 301.374C435.309 301.374 437.132 301.968 438.458 303.07C439.784 304.258 440.447 305.785 440.447 307.652C440.447 309.009 440.032 310.112 439.37 311.13C438.707 312.148 437.712 312.827 436.469 313.251L440.613 320.716H436.055L432.409 314.099H429.757V320.716H425.614V301.374H433.072ZM429.757 310.621H432.824C433.818 310.621 434.564 310.366 435.226 309.857C435.806 309.348 436.138 308.585 436.138 307.652C436.138 306.803 435.806 306.125 435.226 305.616C434.646 305.107 433.818 304.852 432.824 304.852H429.757V310.621Z" fill="white"/>
<path d="M351.999 331.558L300.916 196.8L499.596 58.1405L243.636 109.958L227.216 101.839L215.365 83.2579L207.161 30.1991L188.343 8.09179L154.525 0L114.38 11.9127L0 2.73854L110.288 35.4398L141.337 101.132L169.899 202.761L315.521 353.954L366.927 429.189L351.135 365.909L393.279 403.094L351.999 331.558ZM161.631 30.5832L154.47 29.0704L152.197 22.1074L157.092 16.665L164.261 18.1778L166.53 25.1408L161.631 30.5832Z" fill="white"/>
</svg>
