<svg width="100" height="21" viewBox="0 0 100 21" fill="none" xmlns="http://www.w3.org/2000/svg">
<g clip-path="url(#clip0_1375_727)">
<path d="M0 5.38685H3.30655L7.32573 16.7336L11.2879 5.38685H14.5374L9.15003 20.0574H5.3874L0 5.38685ZM14.4559 8.79662C15.0545 7.65048 15.8812 6.79088 16.9644 6.1605C18.0475 5.53012 19.2732 5.21493 20.67 5.21493C22.0667 5.21493 23.2924 5.50147 24.3755 6.07454C25.4587 6.64761 26.2854 7.47856 26.9125 8.51009C27.5395 9.57026 27.8532 10.8024 27.8817 12.2064C27.8817 12.6076 27.8532 12.98 27.7961 13.3812H16.7933V13.5531C16.8503 14.8425 17.2494 15.8454 17.9905 16.5903C18.7031 17.3354 19.6723 17.7079 20.8694 17.7079C21.8101 17.7079 22.6083 17.5073 23.2639 17.0489C23.891 16.5903 24.3186 15.96 24.5466 15.129H27.6251C27.3401 16.619 26.6275 17.8511 25.4587 18.7967C24.2901 19.7709 22.8363 20.2294 21.0975 20.2294C19.5583 20.2294 18.247 19.9428 17.1069 19.3125C15.9666 18.6821 15.1115 17.8225 14.4844 16.6763C13.8573 15.5589 13.5723 14.2408 13.5723 12.7508C13.5723 11.2608 13.8573 9.94272 14.4559 8.79662ZM24.7461 11.1176C24.6036 10.0574 24.1761 9.22642 23.4634 8.6247C22.7508 8.02298 21.8672 7.70779 20.784 7.70779C19.7578 7.70779 18.9027 8.02298 18.1615 8.65335C17.4204 9.28373 17.0213 10.086 16.9073 11.1176H24.7461ZM37.5412 5.38685V8.28086H35.6438C34.3611 8.28086 33.449 8.71066 32.8789 9.54161C32.3088 10.3725 32.0238 11.4327 32.0238 12.6935V20.0574H28.9452V5.38685H31.6817L32.0238 7.59318C32.4228 6.90549 32.9643 6.38973 33.6485 5.98858C34.3041 5.58744 35.1878 5.38685 36.3279 5.38685H37.5412ZM37.5412 1.28941H40.6197V5.38685H44.1543V8.10894H40.6197V15.7594C40.6197 16.3325 40.7337 16.7623 40.9618 16.9916C41.1899 17.2208 41.5604 17.3354 42.1305 17.3354H44.4679V20.0574H41.5034C40.1067 20.0574 39.109 19.7422 38.4819 19.0832C37.8548 18.4528 37.5412 17.45 37.5412 16.0746V1.28941ZM44.7534 8.79662C45.352 7.65048 46.1786 6.79088 47.2618 6.1605C48.345 5.53012 49.5707 5.21493 50.9674 5.21493C52.3642 5.21493 53.5899 5.50147 54.673 6.07454C55.7562 6.64761 56.5829 7.47856 57.21 8.51009C57.8371 9.57026 58.1506 10.8024 58.1791 12.2064C58.1791 12.6076 58.1506 12.98 58.0937 13.3812H47.0908V13.5531C47.1478 14.8425 47.5469 15.8454 48.288 16.5903C49.0006 17.3354 49.9698 17.7079 51.167 17.7079C52.1077 17.7079 52.9057 17.5073 53.5613 17.0489C54.1885 16.5903 54.616 15.96 54.8441 15.129H57.9226C57.6375 16.619 56.9249 17.8511 55.7562 18.7967C54.5876 19.7709 53.1338 20.2294 51.395 20.2294C49.8557 20.2294 48.5445 19.9428 47.4043 19.3125C46.2642 18.6821 45.409 17.8225 44.7819 16.6763C44.1548 15.5589 43.8697 14.2408 43.8697 12.7508C43.8697 11.2608 44.1548 9.94272 44.7534 8.79662ZM55.0436 11.1176C54.9011 10.0574 54.4735 9.22642 53.7609 8.6247C53.0483 8.02298 52.1646 7.70779 51.0814 7.70779C50.0553 7.70779 49.2001 8.02298 48.459 8.65335C47.7179 9.28373 47.3188 10.086 47.2048 11.1176H55.0436ZM73.21 17.364V20.0574H71.5853C70.6161 20.0574 69.932 19.8568 69.5329 19.4557C69.1054 19.0546 68.9058 18.4815 68.9058 17.7079C67.7941 19.3984 66.1978 20.2294 64.0885 20.2294C62.4353 20.2294 61.124 19.8568 60.1549 19.0832C59.1572 18.3382 58.6726 17.2781 58.6726 15.9314C58.6726 14.4414 59.1857 13.2665 60.2689 12.4643C61.3235 11.6619 62.8628 11.2322 64.9152 11.2322H68.5923V10.3439C68.5923 9.54161 68.3072 8.88258 67.7372 8.42413C67.167 7.96567 66.3689 7.70779 65.3712 7.70779C64.4591 7.70779 63.7179 7.90836 63.1479 8.30951C62.5778 8.71066 62.2357 9.22642 62.1217 9.85681H59.1002C59.2427 8.39547 59.8983 7.24933 61.0385 6.44704C62.1787 5.64474 63.661 5.21493 65.5137 5.21493C67.4521 5.21493 68.9629 5.67339 70.046 6.59031C71.1006 7.50721 71.6422 8.82528 71.6422 10.5445V16.3325C71.6422 17.0202 71.9559 17.364 72.6115 17.364H73.21ZM68.5923 13.5244H64.7726C63.8035 13.5244 63.0908 13.725 62.5778 14.0975C62.0647 14.47 61.8081 15.0144 61.8081 15.7308C61.8081 16.3611 62.0362 16.8769 62.5207 17.2494C63.0053 17.6506 63.661 17.8225 64.5161 17.8225C65.7703 17.8225 66.768 17.4786 67.4806 16.7909C68.1932 16.1033 68.5638 15.1863 68.5923 14.0402V13.5244ZM73.21 0H76.5402V20.0574H73.21V0Z" fill="#ff4d2e"/>
<path d="M80.063 5.15399C80.9764 3.61397 82.2264 2.3627 83.8129 1.44832C85.3514 0.582056 87.0822 0.1008 89.0053 0.1008C90.9284 0.1008 92.6591 0.582056 94.2456 1.44832C95.8322 2.3627 97.0821 3.56584 97.9959 5.10587C98.909 6.64589 99.3899 8.3784 99.3899 10.2553C99.3899 12.1322 98.909 13.8166 97.9959 15.3566C97.0821 16.8966 95.8322 18.1479 94.2456 19.0142C92.6591 19.8804 90.9284 20.3136 89.0053 20.3136C87.0822 20.3136 85.3514 19.8804 83.8129 19.0142C82.2264 18.1479 80.9764 16.9447 80.063 15.4048C79.1495 13.8647 78.7168 12.1803 78.7168 10.3034C78.7168 8.42653 79.1495 6.69401 80.063 5.15399ZM95.8802 6.16463C95.2072 4.96149 94.2456 3.99898 93.0437 3.32521C91.8418 2.65146 90.4956 2.26645 89.0053 2.26645C87.5148 2.26645 86.1688 2.65146 84.9668 3.32521C83.7649 3.99898 82.8033 4.96148 82.1302 6.21275C81.4572 7.46402 81.1207 8.81154 81.1207 10.3034C81.1207 11.7953 81.4572 13.1428 82.1302 14.346C82.8033 15.5492 83.7649 16.5117 84.9668 17.1854C86.1688 17.8591 87.5148 18.196 89.0053 18.196C90.4956 18.196 91.8418 17.8591 93.0437 17.1854C94.2456 16.5117 95.2072 15.5492 95.8802 14.2979C96.5533 13.0947 96.938 11.7472 96.938 10.2553C96.938 8.76342 96.5533 7.4159 95.8802 6.16463ZM89.4379 4.76898C90.736 4.76898 91.7937 5.10587 92.563 5.7315C93.3322 6.40526 93.7168 7.27151 93.7168 8.33028C93.7168 9.10029 93.4764 9.72593 93.0918 10.3034C92.7072 10.8809 92.1303 11.266 91.4091 11.5066L93.813 15.7416H91.1687L89.0534 11.9878H87.5148V15.7416H85.111V4.76898H89.4379ZM87.5148 10.0147H89.2937C89.8706 10.0147 90.3034 9.87033 90.6879 9.58154C91.0245 9.29279 91.2168 8.85967 91.2168 8.33028C91.2168 7.84903 91.0245 7.46402 90.6879 7.17526C90.3514 6.88651 89.8706 6.74214 89.2937 6.74214H87.5148V10.0147Z" fill="#ff4d2e"/>
</g>
<defs>
<clipPath id="clip0_1375_727">
<rect width="99.5" height="20.3061" fill="#ff4d2e"/>
</clipPath>
</defs>
</svg>
